<svg id="visual" viewBox="0 0 900 600" width="900" height="600" xmlns="http://www.w3.org/2000/svg" xmlns:xlink="http://www.w3.org/1999/xlink" version="1.1"><rect x="0" y="0" width="900" height="600" fill="#000000"></rect><defs><linearGradient id="grad1_0" x1="33.3%" y1="0%" x2="100%" y2="100%"><stop offset="20%" stop-color="#000000" stop-opacity="1"></stop><stop offset="80%" stop-color="#000000" stop-opacity="1"></stop></linearGradient></defs><defs><linearGradient id="grad2_0" x1="0%" y1="0%" x2="66.7%" y2="100%"><stop offset="20%" stop-color="#000000" stop-opacity="1"></stop><stop offset="80%" stop-color="#000000" stop-opacity="1"></stop></linearGradient></defs><g transform="translate(900, 0)"><path d="M0 378.6C-56.5 380.1 -113.1 381.6 -144.9 349.8C-176.7 317.9 -183.8 252.6 -215.7 215.7C-247.5 178.7 -304.1 170.1 -335.4 138.9C-366.6 107.7 -372.6 53.8 -378.6 0L0 0Z" fill="#FBAE3C"></path></g><g transform="translate(0, 600)"><path d="M0 -378.6C40.6 -353.7 81.1 -328.9 130.5 -315C179.9 -301.2 238 -298.3 267.7 -267.7C297.4 -237 298.5 -178.6 312.3 -129.3C326 -80.1 352.3 -40 378.6 0L0 0Z" fill="#FBAE3C"></path></g></svg>
