<svg id="visual" viewBox="0 0 900 600" width="900" height="600" xmlns="http://www.w3.org/2000/svg" xmlns:xlink="http://www.w3.org/1999/xlink" version="1.1"><rect x="0" y="0" width="900" height="600" fill="#FFFFFF"></rect><defs><linearGradient id="grad1_0" x1="33.3%" y1="0%" x2="100%" y2="100%"><stop offset="20%" stop-color="#FFFFFF" stop-opacity="1"></stop><stop offset="80%" stop-color="#FFFFFF" stop-opacity="1"></stop></linearGradient></defs><defs><linearGradient id="grad2_0" x1="0%" y1="0%" x2="66.7%" y2="100%"><stop offset="20%" stop-color="#FFFFFF" stop-opacity="1"></stop><stop offset="80%" stop-color="#FFFFFF" stop-opacity="1"></stop></linearGradient></defs><g transform="translate(900, 0)"><path d="M0 378.6C-49.8 374.2 -99.6 369.8 -144.9 349.8C-190.1 329.7 -230.8 294 -253.1 253.1C-275.5 212.3 -279.6 166.3 -297.5 123.2C-315.4 80.2 -347 40.1 -378.6 0L0 0Z" fill="#FBAE3C"></path></g><g transform="translate(0, 600)"><path d="M0 -378.6C48.8 -373 97.7 -367.3 144.9 -349.8C192.1 -332.2 237.7 -302.7 263 -263C288.4 -223.4 293.6 -173.7 309.5 -128.2C325.4 -82.7 352 -41.3 378.6 0L0 0Z" fill="#FBAE3C"></path></g></svg>
