<?xml version="1.0" standalone="no"?>
<!DOCTYPE svg PUBLIC "-//W3C//DTD SVG 20010904//EN"
 "http://www.w3.org/TR/2001/REC-SVG-20010904/DTD/svg10.dtd">
<svg version="1.0" xmlns="http://www.w3.org/2000/svg"
 width="512.000000pt" height="512.000000pt" viewBox="0 0 512.000000 512.000000"
 preserveAspectRatio="xMidYMid meet">
<metadata>
Created by potrace 1.14, written by Peter Selinger 2001-2017
</metadata>
<g transform="translate(0.000000,512.000000) scale(0.100000,-0.100000)"
fill="#000000" stroke="none">
<path d="M1769 4456 c-1 -1 -10 -39 -14 -61 -2 -11 -6 -31 -10 -45 -3 -14 -8
-40 -11 -59 -3 -18 -8 -42 -10 -52 -2 -11 -6 -27 -8 -38 -2 -10 -7 -35 -10
-55 -3 -21 -20 -103 -37 -184 -16 -81 -31 -154 -31 -162 -2 -13 -20 -15 -102
-15 -113 1 -182 -12 -253 -46 -50 -25 -147 -112 -136 -123 4 -3 2 -6 -4 -6
-17 0 -56 -101 -159 -412 -65 -196 -102 -294 -108 -288 -6 6 -11 67 -11 138
-2 133 -10 192 -26 192 -6 0 -8 4 -5 9 10 16 -64 83 -112 100 -38 14 -79 16
-212 15 -91 -1 -172 -4 -180 -6 -51 -14 -69 -25 -106 -63 -47 -49 -67 -108
-60 -178 11 -103 68 -185 164 -233 56 -28 61 -29 235 -32 l178 -4 10 -26 c16
-45 20 -57 21 -62 1 -3 7 -19 15 -37 7 -18 13 -37 13 -42 0 -6 -57 -12 -137
-14 -76 -2 -145 -6 -153 -9 -46 -15 -90 -38 -90 -48 0 -6 -4 -9 -9 -6 -5 3
-25 -18 -44 -47 -33 -50 -42 -71 -52 -123 -2 -10 -4 -170 -4 -355 l-1 -335
-37 -1 c-21 -1 -39 -6 -41 -12 -2 -6 -8 -11 -13 -11 -6 0 -20 -12 -33 -27 -22
-25 -23 -35 -24 -184 -1 -147 0 -159 21 -191 33 -48 64 -59 166 -59 78 0 90
-2 90 -17 -1 -14 0 -116 0 -197 0 -11 0 -73 0 -138 0 -130 21 -204 61 -214 11
-3 20 -10 20 -15 0 -5 4 -7 9 -3 5 3 12 1 15 -3 4 -7 353 -14 561 -12 82 1
134 22 166 69 24 34 24 37 24 281 l0 246 115 2 c149 1 157 0 158 -37 1 -60 81
-147 145 -159 18 -3 403 -6 857 -7 885 0 864 -1 916 50 46 44 64 81 73 146 1
7 215 10 246 4 19 -4 20 -12 20 -248 0 -243 0 -243 25 -280 41 -60 52 -62 382
-62 164 0 298 -3 298 -8 0 -4 8 -3 18 1 9 5 34 17 55 28 54 25 78 76 78 162
-1 37 -1 77 -1 89 0 12 0 26 -1 30 -1 4 -1 72 0 149 l1 141 88 0 c100 -1 148
16 175 62 14 24 17 56 17 183 0 162 -3 176 -53 220 -20 18 -29 20 -74 21 -13
0 -23 5 -24 11 0 6 -2 166 -3 356 -2 266 -5 352 -16 375 -7 17 -14 33 -14 38
-2 18 -61 80 -98 103 -59 37 -86 42 -249 43 l-117 1 30 83 c17 45 33 85 37 89
3 3 85 8 181 10 160 3 179 5 225 27 107 51 177 164 171 274 -3 54 -24 117 -38
117 -5 0 -8 6 -8 13 0 14 -77 65 -112 74 -38 9 -340 10 -378 0 -68 -18 -142
-89 -156 -150 -3 -12 -7 -82 -8 -155 -2 -84 -7 -137 -14 -144 -7 -7 -12 -10
-13 -8 0 3 -2 14 -4 25 -2 11 -29 94 -60 185 -31 91 -58 172 -60 180 -12 47
-85 251 -103 285 -11 22 -36 56 -54 76 -88 96 -173 130 -333 134 -60 2 -115 4
-121 4 -7 1 -17 29 -23 64 -12 69 -12 70 -35 179 -9 42 -19 94 -22 115 -8 47
-12 68 -14 68 -1 0 -4 14 -6 30 -3 17 -10 55 -16 85 -12 57 -17 86 -20 107 -1
7 -8 15 -17 17 -13 3 -1569 5 -1572 2z"/>
</g>
</svg>
